<svg xmlns="http://www.w3.org/2000/svg" viewBox="0 0 528.87 188.85"><defs><style>.cls-1{fill:#27aae1;opacity:0.82;}.cls-2{fill:#be1e2d;opacity:0.4;}.cls-3{fill:#fff200;opacity:0.38;}.cls-4{fill:#00a651;opacity:0.5;}.cls-5{font-size:60px;font-family:ProximaNova-Regular, Proxima Nova;}.cls-5,.cls-7{fill:#e6e7e8;}.cls-6{letter-spacing:-0.11em;}.cls-7{font-size:17.45px;font-family:MyriadPro-Regular, Myriad Pro;}.cls-8{letter-spacing:-0.01em;}.cls-9{letter-spacing:0em;}.cls-10{letter-spacing:0em;}.cls-11{letter-spacing:-0.01em;}.cls-12{letter-spacing:-0.01em;}.cls-13{letter-spacing:0.02em;}</style></defs><g id="Layer_2" data-name="Layer 2"><g id="Layer_1-2" data-name="Layer 1"><path class="cls-1" d="M162.27,81.14a81.24,81.24,0,0,1-57,77.45l-.06,0c-2.24.69-4.51,1.29-6.83,1.79l.32-.46a39.64,39.64,0,0,1-37.46-63,65.3,65.3,0,0,1-5.71-9.07c-.13-.24-.25-.49-.38-.74-.3-.6-.6-1.21-.87-1.83-.22-.44-.42-.89-.61-1.34s-.4-.91-.59-1.37-.35-.85-.51-1.28-.27-.72-.4-1.07c-.22-.58-.43-1.18-.63-1.77s-.39-1.21-.57-1.81c-.38-1.22-.71-2.45-1-3.68-.15-.61-.29-1.24-.42-1.87-.27-1.25-.5-2.52-.69-3.8-.29-1.88-.48-3.78-.6-5.72,0-.52-.07-1.08-.08-1.62,0-.8,0-1.63,0-2.44a65.58,65.58,0,0,1,3-19.82A58.16,58.16,0,0,0,6.9,113.94,81.19,81.19,0,0,1,81.14,0H82A81.14,81.14,0,0,1,162.27,81.14Z"/><path class="cls-2" d="M162.27,81.14a80.88,80.88,0,0,1-3.9,24.88,65.18,65.18,0,0,1-25.75,14.55l-.56.17c-.89.26-1.8.5-2.71.72A65.54,65.54,0,0,1,114,123.28c-.52,0-1.06,0-1.59,0a65.92,65.92,0,0,1-56.8-35.43c-.13-.24-.25-.49-.38-.74-.3-.6-.6-1.21-.87-1.83-.22-.44-.42-.89-.61-1.34s-.4-.91-.59-1.37-.35-.85-.51-1.28-.27-.72-.4-1.07c-.22-.58-.43-1.18-.63-1.77s-.39-1.21-.57-1.81c-.38-1.22-.71-2.45-1-3.68-.15-.61-.29-1.24-.42-1.87-.28-1.25-.5-2.52-.69-3.8-.29-1.88-.48-3.78-.6-5.72,0-.52-.07-1.08-.08-1.62,0-.8,0-1.63,0-2.44A65.76,65.76,0,0,1,82,0,81.14,81.14,0,0,1,162.27,81.14Z"/><path class="cls-3" d="M119.82,94.81a58.05,58.05,0,0,1-50.68,57.6A39.62,39.62,0,0,1,61.29,96.9a65.3,65.3,0,0,1-5.71-9.07c-.13-.24-.25-.49-.38-.74-.3-.6-.6-1.21-.87-1.83-.22-.44-.42-.89-.61-1.34s-.4-.91-.59-1.37-.35-.85-.51-1.28-.27-.72-.4-1.07c-.22-.58-.43-1.18-.63-1.77s-.39-1.21-.57-1.81c-.38-1.22-.71-2.45-1-3.68-.15-.61-.29-1.24-.42-1.87-.28-1.25-.5-2.52-.69-3.8-.29-1.88-.48-3.78-.6-5.72,0-.52-.07-1.08-.08-1.62,0-.8,0-1.63,0-2.44a65.58,65.58,0,0,1,3-19.82,58.15,58.15,0,0,1,68,48.63c.05.43.1.85.16,1.27.16,1.28.29,2.59.35,3.9C119.8,92.58,119.82,93.69,119.82,94.81Z"/><path class="cls-4" d="M132.62,120.57v.16a39.45,39.45,0,1,1,0-.16Z"/><text class="cls-5" transform="translate(180.15 52.53)">Dynamic<tspan class="cls-6" x="0" y="60">T</tspan><tspan x="27.3" y="60">echnologies</tspan></text><text class="cls-7" transform="translate(186.35 146.86)">Ha<tspan class="cls-8" x="19.79" y="0">r</tspan><tspan x="25.33" y="0">d-Disk D</tspan><tspan class="cls-9" x="86.66" y="0">a</tspan><tspan x="95" y="0">ta </tspan><tspan class="cls-10" x="112.89" y="0">R</tspan><tspan x="122.35" y="0">e</tspan><tspan class="cls-11" x="131.09" y="0">c</tspan><tspan class="cls-12" x="138.81" y="0">o</tspan><tspan class="cls-8" x="148.27" y="0">v</tspan><tspan x="156.49" y="0">e</tspan><tspan class="cls-13" x="165.23" y="0">r</tspan><tspan x="171.37" y="0">y</tspan></text></g></g></svg>